# xmcd
#
# Track frame offsets: 
#        150
#        23003
#        41957
#        64830
#        82955
#        103132
#        127069
#        146195
#        167646
#        200751
#        219931
#        240167
#        258344
#        274530
#        298090
#        318988
#
# Disc length: 4635 seconds
#
# Revision: 3
# Processed by: cddbd v1.5.2PL0 Copyright (c) Steve Scherf et al.
# Submitted via: ExactAudioCopy v0.99pb5
#
DISCID=ee121910
DTITLE=Various Artist - Smooth Jazz Ballads
DYEAR=2004
DGENRE=Jazz
TTITLE0=Fourplay - The Closer I Get To You
TTITLE1=Natalie Cole - Crazy He Calls Me
TTITLE2=Michael Franks - Antonio's Song
TTITLE3=Patti Austin - On The Way To Love
TTITLE4=Lee Ritenour - Is It You?
TTITLE5=Patrice Rushen - When I Found You
TTITLE6=Al Jarreau - Teach Me Tonight
TTITLE7=Gabriela Anders - You Know Wath It's Like
TTITLE8=Grover Washington Jr. - Just The Two Of Us
TTITLE9=Peabo Bryson - If You're In My Arms Again
TTITLE10=Randy Crawford - Almaz
TTITLE11=Jonathan Butler - Troughts Of You
TTITLE12=Patti Austin with James Ingram - Baby, Come To Me
TTITLE13=Chaka Khan - The End Of A Love Affair
TTITLE14=Dr. John - More Than You Know
TTITLE15=George Duke with Perri - The Times We've Know
EXTD=
EXTT0=
EXTT1=
EXTT2=
EXTT3=
EXTT4=
EXTT5=
EXTT6=
EXTT7=
EXTT8=
EXTT9=
EXTT10=
EXTT11=
EXTT12=
EXTT13=
EXTT14=
EXTT15=
PLAYORDER=
